<svg xmlns="http://www.w3.org/2000/svg" viewBox="0 0 64 64"><g id="invisi-border"><rect class="cls-1" width="64" height="64"/></g><g id="icon"><polyline class="cls-2" points="47 42 58 53 53 58 42 47"/><path class="cls-3" d="M53,60a2,2,0,0,1-1.41-.59l-11-11a2,2,0,0,1,2.83-2.83L53,55.17,55.17,53l-9.59-9.59a2,2,0,0,1,2.83-2.83l11,11a2,2,0,0,1,0,2.83l-5,5A2,2,0,0,1,53,60Z"/><circle class="cls-4" cx="31" cy="30" r="20"/><path class="cls-3" d="M31,52A22,22,0,1,1,53,30,22,22,0,0,1,31,52Zm0-40A18,18,0,1,0,49,30,18,18,0,0,0,31,12Z"/><path class="cls-2" d="M31,34A11,11,0,0,0,20,45v1.7a20,20,0,0,0,22,0V45A11,11,0,0,0,31,34Z"/><circle class="cls-2" cx="31" cy="26" r="8"/><path class="cls-3" d="M31,36A10,10,0,1,1,41,26,10,10,0,0,1,31,36Zm0-16a6,6,0,1,0,6,6A6,6,0,0,0,31,20Z"/><path class="cls-3" d="M42,47a2,2,0,0,1-2-2,9,9,0,0,0-18,0,2,2,0,0,1-4,0,13,13,0,0,1,26,0A2,2,0,0,1,42,47Z"/><path class="cls-3" d="M31,52A22,22,0,1,1,53,30,22,22,0,0,1,31,52Zm0-40A18,18,0,1,0,49,30,18,18,0,0,0,31,12Z"/></g></svg>