<?xml version="1.0" encoding="UTF-8"?>
<svg id="icon" xmlns="http://www.w3.org/2000/svg" viewBox="0 0 64 64">
  <path d="M31,36c-4.97,0-9,4.03-9,9,0,.18-.03,.36-.08,.52,2.67,1.56,5.76,2.48,9.08,2.48s6.41-.91,9.08-2.48c-.05-.17-.08-.34-.08-.52,0-4.97-4.03-9-9-9Z" fill="#fff"/>
  <circle cx="31" cy="26" r="6" fill="#fff"/>
  <path d="M24.61,33.69c-2.2-1.83-3.61-4.6-3.61-7.69,0-5.52,4.48-10,10-10s10,4.48,10,10c0,3.09-1.4,5.85-3.61,7.69,3.3,1.87,5.69,5.13,6.39,8.98,3.23-3.25,5.22-7.73,5.22-12.67,0-9.94-8.06-18-18-18S13,20.06,13,30c0,4.94,1.99,9.42,5.22,12.67,.7-3.86,3.09-7.12,6.39-8.98Z" fill="#ffba90"/>
  <path d="M59.41,51.58l-9.82-9.82c2.16-3.4,3.41-7.43,3.41-11.76,0-12.15-9.85-22-22-22S9,17.85,9,30s9.85,22,22,22c3.81,0,7.39-.97,10.51-2.67l10.08,10.08c.37,.38,.88,.59,1.41,.59,.53,0,1.04-.21,1.41-.59l5-5h0c.78-.78,.78-2.05,0-2.83Z" fill="#dd7a01"/>
  <path d="M13,30c0-9.94,8.06-18,18-18s18,8.06,18,18c0,4.94-1.99,9.42-5.22,12.67-.7-3.86-3.09-7.12-6.39-8.98,2.2-1.83,3.61-4.6,3.61-7.69,0-5.52-4.48-10-10-10s-10,4.48-10,10c0,3.09,1.4,5.85,3.61,7.69-3.3,1.87-5.69,5.13-6.39,8.98-3.23-3.25-5.22-7.73-5.22-12.67Z" fill="#ffba90"/>
  <circle cx="31" cy="26" r="6" fill="#fff"/>
  <path d="M31,48c-3.32,0-6.41-.91-9.08-2.48,.05-.17,.08-.34,.08-.52,0-4.97,4.03-9,9-9s9,4.03,9,9c0,.18,.03,.36,.08,.52-2.67,1.56-5.76,2.48-9.08,2.48Z" fill="#fff"/>
  <path d="M53,55.17l-8.11-8.11h0c.38-.31,.75-.64,1.12-.98,.03-.03,.06-.06,.09-.09,.35-.33,.7-.68,1.03-1.03h0l8.04,8.04-2.17,2.17Z" fill="#dd7a01"/>
  <path d="M47.13,44.96c-.33,.36-.67,.7-1.03,1.03-.03,.03-.06,.06-.09,.09-.36,.34-.73,.66-1.12,.98h0l8.11,8.11,2.17-2.17-8.04-8.04h0Z" fill="#fff"/>
  <path d="M46.01,46.08c-.36,.34-.73,.66-1.12,.98" fill="none" stroke="#fff" stroke-linecap="round" stroke-linejoin="round" stroke-width="0"/>
  <path d="M47.13,44.96c-.33,.36-.67,.7-1.03,1.03" fill="none" stroke="#fff" stroke-linecap="round" stroke-linejoin="round" stroke-width="0"/>
</svg>
